# xmcd
#
# Track frame offsets:
#	150
#	18071
#	35124
#	51897
#	65782
#	84593
#	101523
#	120514
#	138200
#	155052
#	173032
#	189065
#	208869
#	226116
#	240252
#	258066
#	277035
#	292443
#	308070
#	324724
#	342628
#
# Disc length: 4764 seconds
#
# Revision: 1
# Processed by: cddbd v1.4PL0 Copyright (c) Steve Scherf et al.
# Submitted via: audiograbber 1.82.01
#
DISCID=2f129a15
DTITLE=Seer - Junischnee
DYEAR=2002
DGENRE=
TTITLE0=Junischnee
TTITLE1=3 Minuten um die Welt zu retten
TTITLE2=Wia Feuer and Wossa
TTITLE3=Balkonblumenreggi
TTITLE4=Ondre Zeit - Ondre Welt
TTITLE5=Eine Maus ist im Getriebe
TTITLE6=Hoamweh nach Wildensee
TTITLE7=70-ger Joahr in Eselsboch
TTITLE8=Sapperlot
TTITLE9=Nie mehr ohne Di sein
TTITLE10=Von Haus aus
TTITLE11=Vu zu sche
TTITLE12=Monchmoi regnts in Californien
TTITLE13=Wia ma in Woid einischreit
TTITLE14=Die Berge in Holland
TTITLE15=Postautobus
TTITLE16=Wilds Wossa
TTITLE17=18
TTITLE18=19
TTITLE19=20
TTITLE20=21
EXTD=
EXTT0=
EXTT1=
EXTT2=
EXTT3=
EXTT4=
EXTT5=
EXTT6=
EXTT7=
EXTT8=
EXTT9=
EXTT10=
EXTT11=
EXTT12=
EXTT13=
EXTT14=
EXTT15=
EXTT16=
EXTT17=
EXTT18=
EXTT19=
EXTT20=
PLAYORDER=
